<?xml version="1.0" encoding="UTF-8" standalone="no"?>
<!-- Created with Inkscape (http://www.inkscape.org/) -->

<svg
   xmlns:dc="http://purl.org/dc/elements/1.1/"
   xmlns:cc="http://creativecommons.org/ns#"
   xmlns:rdf="http://www.w3.org/1999/02/22-rdf-syntax-ns#"
   xmlns:svg="http://www.w3.org/2000/svg"
   xmlns="http://www.w3.org/2000/svg"
   xmlns:xlink="http://www.w3.org/1999/xlink"
   xmlns:sodipodi="http://sodipodi.sourceforge.net/DTD/sodipodi-0.dtd"
   xmlns:inkscape="http://www.inkscape.org/namespaces/inkscape"
   width="70"
   height="210"
   id="svg2"
   version="1.1"
   inkscape:version="0.47 r22583"
   sodipodi:docname="like.svg"
   inkscape:export-filename="/Users/akkartik/Desktop/like.png"
   inkscape:export-xdpi="90"
   inkscape:export-ydpi="90">
  <defs
     id="defs4">
    <linearGradient
       id="linearGradient6538">
      <stop
         id="stop6540"
         offset="0"
         style="stop-color:#c1e6aa;stop-opacity:1;" />
      <stop
         id="stop6542"
         offset="1"
         style="stop-color:#539927;stop-opacity:1;" />
    </linearGradient>
    <linearGradient
       id="linearGradient4033">
      <stop
         style="stop-color:#7e2038;stop-opacity:1;"
         offset="0"
         id="stop4041" />
      <stop
         style="stop-color:#e08ea2;stop-opacity:1;"
         offset="1"
         id="stop4039" />
    </linearGradient>
    <linearGradient
       id="linearGradient4027"
       inkscape:collect="always">
      <stop
         id="stop4029"
         offset="0"
         style="stop-color:#eeeeee;stop-opacity:1;" />
      <stop
         id="stop4031"
         offset="1"
         style="stop-color:#eeeeee;stop-opacity:0;" />
    </linearGradient>
    <linearGradient
       id="linearGradient4019">
      <stop
         style="stop-color:#e7a9b8;stop-opacity:1;"
         offset="0"
         id="stop4021" />
      <stop
         style="stop-color:#902440;stop-opacity:1;"
         offset="1"
         id="stop4023" />
    </linearGradient>
    <linearGradient
       id="linearGradient3929">
      <stop
         id="stop3931"
         offset="0"
         style="stop-color:#e7a9b8;stop-opacity:1;" />
      <stop
         id="stop3933"
         offset="1"
         style="stop-color:#902440;stop-opacity:1;" />
    </linearGradient>
    <linearGradient
       inkscape:collect="always"
       id="linearGradient3806">
      <stop
         style="stop-color:#eeeeee;stop-opacity:1;"
         offset="0"
         id="stop3808" />
      <stop
         style="stop-color:#eeeeee;stop-opacity:0;"
         offset="1"
         id="stop3810" />
    </linearGradient>
    <linearGradient
       id="linearGradient3715">
      <stop
         style="stop-color:#abdd8b;stop-opacity:1;"
         offset="0"
         id="stop3717" />
      <stop
         style="stop-color:#42791f;stop-opacity:1;"
         offset="1"
         id="stop3719" />
    </linearGradient>
    <inkscape:perspective
       sodipodi:type="inkscape:persp3d"
       inkscape:vp_x="0 : 526.18109 : 1"
       inkscape:vp_y="0 : 1000 : 0"
       inkscape:vp_z="744.09448 : 526.18109 : 1"
       inkscape:persp3d-origin="372.04724 : 350.78739 : 1"
       id="perspective10" />
    <radialGradient
       inkscape:collect="always"
       xlink:href="#linearGradient3715"
       id="radialGradient3845"
       gradientUnits="userSpaceOnUse"
       gradientTransform="matrix(0.98531739,0,0,1.0656788,0.51389146,8.2527445)"
       cx="35"
       cy="12.9"
       fx="35"
       fy="12.9"
       r="34" />
    <linearGradient
       inkscape:collect="always"
       xlink:href="#linearGradient4027"
       id="linearGradient4017"
       gradientUnits="userSpaceOnUse"
       x1="35"
       y1="106.24264"
       x2="35"
       y2="22.485729" />
    <linearGradient
       inkscape:collect="always"
       xlink:href="#linearGradient3806"
       id="linearGradient5040"
       gradientUnits="userSpaceOnUse"
       x1="35"
       y1="-7.2773762"
       x2="35"
       y2="66.009918" />
    <radialGradient
       inkscape:collect="always"
       xlink:href="#linearGradient3715"
       id="radialGradient6085"
       gradientUnits="userSpaceOnUse"
       gradientTransform="matrix(0.98531739,0,0,1.0656788,0.51389146,8.2527445)"
       cx="35"
       cy="12.9"
       fx="35"
       fy="12.9"
       r="34" />
    <linearGradient
       inkscape:collect="always"
       xlink:href="#linearGradient3806"
       id="linearGradient6087"
       gradientUnits="userSpaceOnUse"
       x1="35"
       y1="-7.2773762"
       x2="35"
       y2="66.009918" />
    <linearGradient
       inkscape:collect="always"
       xlink:href="#linearGradient3806"
       id="linearGradient6089"
       gradientUnits="userSpaceOnUse"
       x1="35"
       y1="-7.2773762"
       x2="35"
       y2="66.009918" />
    <linearGradient
       inkscape:collect="always"
       xlink:href="#linearGradient3806"
       id="linearGradient6091"
       gradientUnits="userSpaceOnUse"
       x1="35"
       y1="-7.2773762"
       x2="35"
       y2="66.009918" />
    <radialGradient
       inkscape:collect="always"
       xlink:href="#linearGradient3715"
       id="radialGradient6186"
       gradientUnits="userSpaceOnUse"
       gradientTransform="matrix(0.98531739,0,0,1.0656788,0.51389146,8.2527445)"
       cx="35"
       cy="12.9"
       fx="35"
       fy="12.9"
       r="34" />
    <linearGradient
       inkscape:collect="always"
       xlink:href="#linearGradient3806"
       id="linearGradient6188"
       gradientUnits="userSpaceOnUse"
       x1="35"
       y1="-7.2773762"
       x2="35"
       y2="66.009918" />
    <linearGradient
       inkscape:collect="always"
       xlink:href="#linearGradient3806"
       id="linearGradient6190"
       gradientUnits="userSpaceOnUse"
       x1="35"
       y1="-7.2773762"
       x2="35"
       y2="66.009918" />
    <linearGradient
       inkscape:collect="always"
       xlink:href="#linearGradient3806"
       id="linearGradient6192"
       gradientUnits="userSpaceOnUse"
       x1="35"
       y1="-7.2773762"
       x2="35"
       y2="66.009918" />
    <linearGradient
       inkscape:collect="always"
       xlink:href="#linearGradient3806"
       id="linearGradient6487"
       gradientUnits="userSpaceOnUse"
       x1="35"
       y1="-7.2773762"
       x2="35"
       y2="66.009918" />
    <linearGradient
       inkscape:collect="always"
       xlink:href="#linearGradient3806"
       id="linearGradient6489"
       gradientUnits="userSpaceOnUse"
       x1="35"
       y1="-7.2773762"
       x2="35"
       y2="66.009918" />
    <linearGradient
       inkscape:collect="always"
       xlink:href="#linearGradient3806"
       id="linearGradient6491"
       gradientUnits="userSpaceOnUse"
       x1="35"
       y1="-7.2773762"
       x2="35"
       y2="66.009918" />
    <radialGradient
       inkscape:collect="always"
       xlink:href="#linearGradient3715"
       id="radialGradient6509"
       gradientUnits="userSpaceOnUse"
       gradientTransform="matrix(0.98531739,0,0,1.0656788,0.51389146,8.2527445)"
       cx="35"
       cy="12.9"
       fx="35"
       fy="12.9"
       r="34" />
    <linearGradient
       inkscape:collect="always"
       xlink:href="#linearGradient3806"
       id="linearGradient6511"
       gradientUnits="userSpaceOnUse"
       x1="35"
       y1="-7.2773762"
       x2="35"
       y2="66.009918" />
    <linearGradient
       inkscape:collect="always"
       xlink:href="#linearGradient3806"
       id="linearGradient6513"
       gradientUnits="userSpaceOnUse"
       x1="35"
       y1="-7.2773762"
       x2="35"
       y2="66.009918" />
    <linearGradient
       inkscape:collect="always"
       xlink:href="#linearGradient3806"
       id="linearGradient6515"
       gradientUnits="userSpaceOnUse"
       x1="35"
       y1="-7.2773762"
       x2="35"
       y2="66.009918" />
    <linearGradient
       inkscape:collect="always"
       xlink:href="#linearGradient3806"
       id="linearGradient6522"
       gradientUnits="userSpaceOnUse"
       x1="35"
       y1="-7.2773762"
       x2="35"
       y2="66.009918" />
    <radialGradient
       inkscape:collect="always"
       xlink:href="#linearGradient6538"
       id="radialGradient6544"
       gradientUnits="userSpaceOnUse"
       gradientTransform="matrix(0.98531739,0,0,1.0656788,0.51389146,8.2527445)"
       cx="35"
       cy="12.9"
       fx="35"
       fy="12.9"
       r="34" />
    <radialGradient
       inkscape:collect="always"
       xlink:href="#linearGradient3715"
       id="radialGradient6579"
       gradientUnits="userSpaceOnUse"
       gradientTransform="matrix(0.98531739,0,0,1.0656788,0.51389146,8.2527445)"
       cx="35"
       cy="12.9"
       fx="35"
       fy="12.9"
       r="34" />
    <linearGradient
       inkscape:collect="always"
       xlink:href="#linearGradient3806"
       id="linearGradient6581"
       gradientUnits="userSpaceOnUse"
       x1="35"
       y1="-7.2773762"
       x2="35"
       y2="66.009918" />
    <linearGradient
       inkscape:collect="always"
       xlink:href="#linearGradient3806"
       id="linearGradient6583"
       gradientUnits="userSpaceOnUse"
       x1="35"
       y1="-7.2773762"
       x2="35"
       y2="66.009918" />
    <linearGradient
       inkscape:collect="always"
       xlink:href="#linearGradient3806"
       id="linearGradient6589"
       gradientUnits="userSpaceOnUse"
       x1="35"
       y1="-7.2773762"
       x2="35"
       y2="66.009918" />
    <linearGradient
       inkscape:collect="always"
       xlink:href="#linearGradient3806"
       id="linearGradient6591"
       gradientUnits="userSpaceOnUse"
       x1="35"
       y1="-7.2773762"
       x2="35"
       y2="66.009918" />
  </defs>
  <sodipodi:namedview
     id="base"
     pagecolor="#ffffff"
     bordercolor="#666666"
     borderopacity="1.0"
     inkscape:pageopacity="0.0"
     inkscape:pageshadow="2"
     inkscape:zoom="2.8952381"
     inkscape:cx="57.631214"
     inkscape:cy="105"
     inkscape:document-units="px"
     inkscape:current-layer="layer1"
     showgrid="true"
     showguides="true"
     inkscape:guide-bbox="true"
     inkscape:window-width="1280"
     inkscape:window-height="778"
     inkscape:window-x="0"
     inkscape:window-y="0"
     inkscape:window-maximized="0"
     inkscape:snap-global="false">
    <inkscape:grid
       type="xygrid"
       id="grid3674"
       empspacing="5"
       visible="true"
       enabled="true"
       snapvisiblegridlinesonly="true" />
    <sodipodi:guide
       orientation="0,1"
       position="44,140"
       id="guide3833" />
    <sodipodi:guide
       orientation="0,1"
       position="38,70"
       id="guide3835" />
  </sodipodi:namedview>
  <metadata
     id="metadata7">
    <rdf:RDF>
      <cc:Work
         rdf:about="">
        <dc:format>image/svg+xml</dc:format>
        <dc:type
           rdf:resource="http://purl.org/dc/dcmitype/StillImage" />
        <dc:title></dc:title>
      </cc:Work>
    </rdf:RDF>
  </metadata>
  <g
     inkscape:label="Layer 1"
     inkscape:groupmode="layer"
     id="layer1"
     transform="translate(0,-842.36218)">
    <g
       id="g6563">
      <path
         transform="translate(0,842.36942)"
         d="M 68,35 C 68,53.225397 53.225397,68 35,68 16.774603,68 2,53.225397 2,35 2,16.774603 16.774603,2 35,2 53.225397,2 68,16.774603 68,35 z"
         sodipodi:ry="33"
         sodipodi:rx="33"
         sodipodi:cy="35"
         sodipodi:cx="35"
         id="path3689"
         style="fill:url(#radialGradient6509);fill-opacity:1;stroke:#42791f;stroke-width:1;stroke-miterlimit:4;stroke-opacity:1;stroke-dasharray:none"
         sodipodi:type="arc" />
      <path
         transform="matrix(0.83680131,0,0,0.57308705,6.057349,845.16672)"
         d="M 35,6.78125 C 19.359109,6.78125 6.78125,19.359109 6.78125,35 6.78125,50.640891 19.359109,63.21875 35,63.21875 50.640891,63.21875 63.21875,50.640891 63.21875,35 63.21875,19.359109 50.640891,6.78125 35,6.78125 z"
         id="path3804"
         style="fill:url(#linearGradient6511);fill-opacity:1;stroke:none"
         inkscape:original="M 35 2 C 16.774603 2 2 16.774603 2 35 C 2 53.225397 16.774603 68 35 68 C 53.225397 68 68 53.225397 68 35 C 68 16.774603 53.225397 2 35 2 z "
         inkscape:radius="-4.7822251"
         sodipodi:type="inkscape:offset" />
      <path
         d="m 45.135185,897.99781 2.89778,0.7764 c 1.60537,0.4302 3.24408,-0.5159 3.67425,-2.1213 l 4.65874,-17.3867 c 0.43016,-1.6054 -0.51595,-3.2441 -2.12132,-3.6742 l -2.89778,-0.7765 c -1.60537,-0.4301 -3.24408,0.516 -3.67423,2.1213 l -4.65875,17.3867 c -0.43017,1.6054 0.51594,3.2441 2.12131,3.6743 z m -24.31902,-25.1513 2.89778,0.7764 m -5.41662,4.7603 3.86371,1.0353 m -4.07177,11.3323 c -1.60537,-0.4301 -2.55148,-2.0688 -2.12131,-3.6742 0.43016,-1.6054 2.06887,-2.5515 3.67424,-2.1214 l -2.89778,-0.7764 c -1.60537,-0.4302 -2.55148,-2.0689 -2.12132,-3.6743 0.43015,-1.6053 2.06886,-2.5514 3.67423,-2.1213 -1.60537,-0.4301 -2.55148,-2.0688 -2.12132,-3.6742 0.43016,-1.6054 2.06887,-2.5515 3.67424,-2.1213 l 1.75074,0.4691 c -1.60537,-0.4302 -2.55148,-2.06894 -2.12132,-3.67434 0.43015,-1.6053 2.06886,-2.5514 3.67423,-2.1213 l 7.90852,2.1191 0.96593,0.2588 2.8374,0.7603 -2.88717,-11.3205 c -0.41139,-1.6102 0.55801,-3.2134 2.16831,-3.6248 l 0.97459,-0.2565 c 1.61027,-0.4113 3.21343,0.558 3.6248,2.1684 l 4.03333,15.73634 c 1.34323,1.217 1.98072,3.1123 1.4776,4.9899 l -3.62346,13.523 c -0.71693,2.6756 -3.44813,4.2525 -6.12374,3.5356 l -7.5463,-2.0221 -2.11296,-0.5661 -6.76148,-1.8118 z"
         style="fill:none;stroke:#ffffff;stroke-width:2;stroke-miterlimit:4;stroke-opacity:1"
         id="path5920" />
      <path
         sodipodi:type="inkscape:offset"
         inkscape:radius="-4.7822251"
         inkscape:original="M 35 2 C 16.774603 2 2 16.774603 2 35 C 2 53.225397 16.774603 68 35 68 C 53.225397 68 68 53.225397 68 35 C 68 16.774603 53.225397 2 35 2 z "
         style="fill:url(#linearGradient6513);fill-opacity:1;stroke:none"
         id="path6044"
         d="M 35,6.78125 C 19.359109,6.78125 6.78125,19.359109 6.78125,35 6.78125,50.640891 19.359109,63.21875 35,63.21875 50.640891,63.21875 63.21875,50.640891 63.21875,35 63.21875,19.359109 50.640891,6.78125 35,6.78125 z"
         transform="matrix(0.83680131,0,0,0.57308705,6.057349,845.16672)" />
    </g>
    <g
       id="g6546">
      <path
         sodipodi:type="arc"
         style="fill:url(#radialGradient6544);fill-opacity:1;stroke:#559927;stroke-width:1;stroke-miterlimit:4;stroke-opacity:1;stroke-dasharray:none"
         id="path6107"
         sodipodi:cx="35"
         sodipodi:cy="35"
         sodipodi:rx="33"
         sodipodi:ry="33"
         d="M 68,35 C 68,53.225397 53.225397,68 35,68 16.774603,68 2,53.225397 2,35 2,16.774603 16.774603,2 35,2 53.225397,2 68,16.774603 68,35 z"
         transform="translate(0,912.48455)" />
      <path
         id="path6111"
         style="fill:none;stroke:#ffffff;stroke-width:2;stroke-miterlimit:4;stroke-opacity:1"
         d="m 45.135185,968.11294 2.89778,0.7764 c 1.60537,0.4302 3.24408,-0.5159 3.67425,-2.1213 l 4.65874,-17.3867 c 0.43016,-1.6054 -0.51595,-3.2441 -2.12132,-3.6742 l -2.89778,-0.7765 c -1.60537,-0.4301 -3.24408,0.516 -3.67423,2.1213 l -4.65875,17.3867 c -0.43017,1.6054 0.51594,3.2441 2.12131,3.6743 z m -24.31902,-25.1513 2.89778,0.7764 m -5.41662,4.7603 3.86371,1.0353 m -4.07177,11.3323 c -1.60537,-0.4301 -2.55148,-2.0688 -2.12131,-3.6742 0.43016,-1.6054 2.06887,-2.5515 3.67424,-2.1214 l -2.89778,-0.7764 c -1.60537,-0.4302 -2.55148,-2.0689 -2.12132,-3.6743 0.43015,-1.6053 2.06886,-2.5514 3.67423,-2.1213 -1.60537,-0.4301 -2.55148,-2.0688 -2.12132,-3.6742 0.43016,-1.6054 2.06887,-2.5515 3.67424,-2.1213 l 1.75074,0.4691 c -1.60537,-0.4302 -2.55148,-2.06894 -2.12132,-3.67434 0.43015,-1.6053 2.06886,-2.5514 3.67423,-2.1213 l 7.90852,2.1191 0.96593,0.2588 2.8374,0.7603 -2.88717,-11.3205 c -0.41139,-1.6102 0.55801,-3.2134 2.16831,-3.6248 l 0.97459,-0.2565 c 1.61027,-0.4113 3.21343,0.558 3.6248,2.1684 l 4.03333,15.73634 c 1.34323,1.217 1.98072,3.1123 1.4776,4.9899 l -3.62346,13.523 c -0.71693,2.6756 -3.44813,4.2525 -6.12374,3.5356 l -7.5463,-2.0221 -2.11296,-0.5661 -6.76148,-1.8118 z" />
      <path
         sodipodi:type="inkscape:offset"
         inkscape:radius="-4.7822251"
         inkscape:original="M 35 2 C 16.774603 2 2 16.774603 2 35 C 2 53.225397 16.774603 68 35 68 C 53.225397 68 68 53.225397 68 35 C 68 16.774603 53.225397 2 35 2 z "
         style="fill:url(#linearGradient6487);fill-opacity:1;stroke:none"
         id="path6115"
         d="M 35,6.78125 C 19.359109,6.78125 6.78125,19.359109 6.78125,35 6.78125,50.640891 19.359109,63.21875 35,63.21875 50.640891,63.21875 63.21875,50.640891 63.21875,35 63.21875,19.359109 50.640891,6.78125 35,6.78125 z"
         transform="matrix(0.83680131,0,0,0.57308705,6.0573487,915.62724)" />
    </g>
    <g
       id="g6605">
      <path
         sodipodi:type="arc"
         style="fill:#42791f;fill-opacity:1;stroke:#42791f;stroke-width:1;stroke-miterlimit:4;stroke-opacity:1;stroke-dasharray:none"
         id="path6571"
         sodipodi:cx="35"
         sodipodi:cy="35"
         sodipodi:rx="33"
         sodipodi:ry="33"
         d="M 68,35 C 68,53.225397 53.225397,68 35,68 16.774603,68 2,53.225397 2,35 2,16.774603 16.774603,2 35,2 53.225397,2 68,16.774603 68,35 z"
         transform="translate(0,982.59968)" />
      <path
         id="path6575"
         style="fill:none;stroke:#ffffff;stroke-width:2;stroke-miterlimit:4;stroke-opacity:1"
         d="m 45.135185,1038.2281 2.89778,0.7764 c 1.60537,0.4302 3.24408,-0.5159 3.67425,-2.1213 l 4.65874,-17.3867 c 0.43016,-1.6054 -0.51595,-3.2441 -2.12132,-3.6742 l -2.89778,-0.7765 c -1.60537,-0.4301 -3.24408,0.516 -3.67423,2.1213 l -4.65875,17.3867 c -0.43017,1.6054 0.51594,3.2441 2.12131,3.6743 z m -24.31902,-25.1513 2.89778,0.7764 m -5.41662,4.7603 3.86371,1.0353 m -4.07177,11.3323 c -1.60537,-0.4301 -2.55148,-2.0688 -2.12131,-3.6742 0.43016,-1.6054 2.06887,-2.5515 3.67424,-2.1214 l -2.89778,-0.7764 c -1.60537,-0.4302 -2.55148,-2.0689 -2.12132,-3.6743 0.43015,-1.6053 2.06886,-2.5514 3.67423,-2.1213 -1.60537,-0.4301 -2.55148,-2.0688 -2.12132,-3.6742 0.43016,-1.6054 2.06887,-2.5515 3.67424,-2.1213 l 1.75074,0.4691 c -1.60537,-0.4302 -2.55148,-2.069 -2.12132,-3.6744 0.43015,-1.6053 2.06886,-2.5514 3.67423,-2.1213 l 7.90852,2.1191 0.96593,0.2588 2.8374,0.7603 -2.88717,-11.32047 c -0.41139,-1.6102 0.55801,-3.2134 2.16831,-3.6248 l 0.97459,-0.2565 c 1.61027,-0.4113 3.21343,0.558 3.6248,2.1684 l 4.03333,15.73637 c 1.34323,1.217 1.98072,3.1123 1.4776,4.9899 l -3.62346,13.523 c -0.71693,2.6756 -3.44813,4.2525 -6.12374,3.5356 l -7.5463,-2.0221 -2.11296,-0.5661 -6.76148,-1.8118 z" />
    </g>
  </g>
</svg>
