<?xml version="1.0" encoding="UTF-8" standalone="no"?>
<!-- Created with Inkscape (http://www.inkscape.org/) -->

<svg
   xmlns:dc="http://purl.org/dc/elements/1.1/"
   xmlns:cc="http://creativecommons.org/ns#"
   xmlns:rdf="http://www.w3.org/1999/02/22-rdf-syntax-ns#"
   xmlns:svg="http://www.w3.org/2000/svg"
   xmlns="http://www.w3.org/2000/svg"
   xmlns:xlink="http://www.w3.org/1999/xlink"
   xmlns:sodipodi="http://sodipodi.sourceforge.net/DTD/sodipodi-0.dtd"
   xmlns:inkscape="http://www.inkscape.org/namespaces/inkscape"
   width="70"
   height="210"
   id="svg2"
   version="1.1"
   inkscape:version="0.47 r22583"
   sodipodi:docname="New document 1">
  <defs
     id="defs4">
    <linearGradient
       id="linearGradient4033">
      <stop
         style="stop-color:#7e2038;stop-opacity:1;"
         offset="0"
         id="stop4041" />
      <stop
         style="stop-color:#e08ea2;stop-opacity:1;"
         offset="1"
         id="stop4039" />
    </linearGradient>
    <linearGradient
       id="linearGradient4027"
       inkscape:collect="always">
      <stop
         id="stop4029"
         offset="0"
         style="stop-color:#eeeeee;stop-opacity:1;" />
      <stop
         id="stop4031"
         offset="1"
         style="stop-color:#eeeeee;stop-opacity:0;" />
    </linearGradient>
    <linearGradient
       id="linearGradient4019">
      <stop
         style="stop-color:#e7a9b8;stop-opacity:1;"
         offset="0"
         id="stop4021" />
      <stop
         style="stop-color:#902440;stop-opacity:1;"
         offset="1"
         id="stop4023" />
    </linearGradient>
    <linearGradient
       id="linearGradient3929">
      <stop
         id="stop3931"
         offset="0"
         style="stop-color:#e7a9b8;stop-opacity:1;" />
      <stop
         id="stop3933"
         offset="1"
         style="stop-color:#902440;stop-opacity:1;" />
    </linearGradient>
    <linearGradient
       inkscape:collect="always"
       id="linearGradient3806">
      <stop
         style="stop-color:#eeeeee;stop-opacity:1;"
         offset="0"
         id="stop3808" />
      <stop
         style="stop-color:#eeeeee;stop-opacity:0;"
         offset="1"
         id="stop3810" />
    </linearGradient>
    <linearGradient
       id="linearGradient3715">
      <stop
         style="stop-color:#e08ea2;stop-opacity:1;"
         offset="0"
         id="stop3717" />
      <stop
         style="stop-color:#7e2038;stop-opacity:1;"
         offset="1"
         id="stop3719" />
    </linearGradient>
    <inkscape:perspective
       sodipodi:type="inkscape:persp3d"
       inkscape:vp_x="0 : 526.18109 : 1"
       inkscape:vp_y="0 : 1000 : 0"
       inkscape:vp_z="744.09448 : 526.18109 : 1"
       inkscape:persp3d-origin="372.04724 : 350.78739 : 1"
       id="perspective10" />
    <radialGradient
       inkscape:collect="always"
       xlink:href="#linearGradient3715"
       id="radialGradient3845"
       gradientUnits="userSpaceOnUse"
       gradientTransform="matrix(0.98531739,0,0,1.0656788,0.51389146,8.2527445)"
       cx="35"
       cy="12.9"
       fx="35"
       fy="12.9"
       r="34" />
    <radialGradient
       inkscape:collect="always"
       xlink:href="#linearGradient3929"
       id="radialGradient3927"
       gradientUnits="userSpaceOnUse"
       gradientTransform="matrix(0.98531739,0,0,1.0656788,0.51389146,8.2527445)"
       cx="35"
       cy="12.9"
       fx="35"
       fy="12.9"
       r="34" />
    <radialGradient
       inkscape:collect="always"
       xlink:href="#linearGradient3715"
       id="radialGradient3935"
       gradientUnits="userSpaceOnUse"
       gradientTransform="matrix(0.98531739,0,0,1.0656788,0.51389146,8.2527445)"
       cx="35"
       cy="12.9"
       fx="35"
       fy="12.9"
       r="34" />
    <linearGradient
       inkscape:collect="always"
       xlink:href="#linearGradient3806"
       id="linearGradient3949"
       gradientUnits="userSpaceOnUse"
       x1="35"
       y1="-7.2773762"
       x2="35"
       y2="66.009918" />
    <linearGradient
       inkscape:collect="always"
       xlink:href="#linearGradient3806"
       id="linearGradient3953"
       gradientUnits="userSpaceOnUse"
       x1="35"
       y1="-7.2773762"
       x2="35"
       y2="66.009918" />
    <linearGradient
       inkscape:collect="always"
       xlink:href="#linearGradient3806"
       id="linearGradient4008"
       gradientUnits="userSpaceOnUse"
       x1="35"
       y1="-7.2773762"
       x2="35"
       y2="66.009918" />
    <linearGradient
       inkscape:collect="always"
       xlink:href="#linearGradient3806"
       id="linearGradient4013"
       gradientUnits="userSpaceOnUse"
       x1="35"
       y1="-7.2773762"
       x2="35"
       y2="66.009918" />
    <linearGradient
       inkscape:collect="always"
       xlink:href="#linearGradient4027"
       id="linearGradient4017"
       gradientUnits="userSpaceOnUse"
       x1="35"
       y1="106.24264"
       x2="35"
       y2="22.485729" />
  </defs>
  <sodipodi:namedview
     id="base"
     pagecolor="#ffffff"
     bordercolor="#666666"
     borderopacity="1.0"
     inkscape:pageopacity="0.0"
     inkscape:pageshadow="2"
     inkscape:zoom="2.8952381"
     inkscape:cx="121.52924"
     inkscape:cy="105"
     inkscape:document-units="px"
     inkscape:current-layer="layer1"
     showgrid="true"
     showguides="true"
     inkscape:guide-bbox="true"
     inkscape:window-width="1436"
     inkscape:window-height="856"
     inkscape:window-x="4"
     inkscape:window-y="22"
     inkscape:window-maximized="0">
    <inkscape:grid
       type="xygrid"
       id="grid3674"
       empspacing="5"
       visible="true"
       enabled="true"
       snapvisiblegridlinesonly="true" />
    <sodipodi:guide
       orientation="0,1"
       position="44,140"
       id="guide3833" />
    <sodipodi:guide
       orientation="0,1"
       position="38,70"
       id="guide3835" />
  </sodipodi:namedview>
  <metadata
     id="metadata7">
    <rdf:RDF>
      <cc:Work
         rdf:about="">
        <dc:format>image/svg+xml</dc:format>
        <dc:type
           rdf:resource="http://purl.org/dc/dcmitype/StillImage" />
        <dc:title></dc:title>
      </cc:Work>
    </rdf:RDF>
  </metadata>
  <g
     inkscape:label="Layer 1"
     inkscape:groupmode="layer"
     id="layer1"
     transform="translate(0,-842.36218)">
    <path
       sodipodi:type="arc"
       style="fill:url(#radialGradient3935);fill-opacity:1.0;stroke:#7e2038;stroke-width:1;stroke-miterlimit:4;stroke-opacity:1;stroke-dasharray:none"
       id="path3689"
       sodipodi:cx="35"
       sodipodi:cy="35"
       sodipodi:rx="33"
       sodipodi:ry="33"
       d="M 68,35 A 33,33 0 1 1 2,35 33,33 0 1 1 68,35 z"
       transform="translate(0,842.36942)" />
    <path
       id="rect3699"
       style="fill:none;stroke:#ffffff;stroke-width:2;stroke-miterlimit:4;stroke-opacity:1"
       d="m 44.640663,856.36218 2.897778,-0.77645 c 1.605369,-0.43016 3.244077,0.51595 3.674247,2.12137 l 4.658743,17.38664 c 0.430157,1.6054 -0.515951,3.2441 -2.12132,3.6742 l -2.897778,0.7765 c -1.605368,0.4301 -3.244077,-0.516 -3.674234,-2.1213 l -4.658743,-17.3867 c -0.43017,-1.60539 0.515939,-3.2441 2.121307,-3.67426 z m -24.319019,25.15126 2.897778,-0.7764 m -5.416618,-4.7603 3.863704,-1.0353 m -4.071768,-11.3323 c -1.605368,0.4301 -2.551477,2.0688 -2.121307,3.6742 0.430157,1.6054 2.068866,2.5515 3.674234,2.1214 l -2.897777,0.7764 c -1.605369,0.4302 -2.551478,2.0689 -2.12132,3.6743 0.430157,1.6053 2.068866,2.5514 3.674234,2.1213 -1.605368,0.4301 -2.551477,2.0688 -2.12132,3.6742 0.430157,1.6054 2.068866,2.5515 3.674235,2.1213 l 1.75074,-0.4691 c -1.605369,0.4302 -2.551478,2.0689 -2.12132,3.6743 0.430157,1.6053 2.068866,2.5514 3.674234,2.1213 l 7.908518,-2.1191 0.965926,-0.2588 2.837407,-0.7603 -2.887169,11.3205 c -0.411396,1.6102 0.558007,3.2134 2.168304,3.6248 l 0.974594,0.2565 c 1.610272,0.4113 3.213432,-0.558 3.624802,-2.1684 l 4.033327,-15.7363 c 1.343228,-1.217 1.98072,-3.1123 1.477601,-4.9899 l -3.623466,-13.523 c -0.716929,-2.6756 -3.448123,-4.25247 -6.123738,-3.53555 l -7.546295,2.02205 -2.112963,0.5661 -6.761481,1.8118 z" />
    <path
       sodipodi:type="inkscape:offset"
       inkscape:radius="-4.7822251"
       inkscape:original="M 35 2 C 16.774603 2 2 16.774603 2 35 C 2 53.225397 16.774603 68 35 68 C 53.225397 68 68 53.225397 68 35 C 68 16.774603 53.225397 2 35 2 z "
       style="fill:url(#linearGradient3949);fill-opacity:1;stroke:none"
       id="path3804"
       d="M 35,6.78125 C 19.359109,6.78125 6.78125,19.359109 6.78125,35 6.78125,50.640891 19.359109,63.21875 35,63.21875 50.640891,63.21875 63.21875,50.640891 63.21875,35 63.21875,19.359109 50.640891,6.78125 35,6.78125 z"
       transform="matrix(0.83680131,0,0,0.57308705,5.7119542,844.47593)" />
    <path
       transform="matrix(0.83680131,0,0,0.57308705,5.7119541,983.47593)"
       d="M 35,6.78125 C 19.359109,6.78125 6.78125,19.359109 6.78125,35 6.78125,50.640891 19.359109,63.21875 35,63.21875 50.640891,63.21875 63.21875,50.640891 63.21875,35 63.21875,19.359109 50.640891,6.78125 35,6.78125 z"
       id="path3923"
       style="fill:url(#linearGradient4013);fill-opacity:1;stroke:none"
       inkscape:original="M 35 2 C 16.774603 2 2 16.774603 2 35 C 2 53.225397 16.774603 68 35 68 C 53.225397 68 68 53.225397 68 35 C 68 16.774603 53.225397 2 35 2 z "
       inkscape:radius="-4.7822251"
       sodipodi:type="inkscape:offset" />
    <g
       id="g3971">
      <path
         sodipodi:type="arc"
         style="fill:url(#radialGradient3927);fill-opacity:1.0;stroke:#7e2038;stroke-width:1;stroke-miterlimit:4;stroke-opacity:1;stroke-dasharray:none"
         id="path3839"
         sodipodi:cx="35"
         sodipodi:cy="35"
         sodipodi:rx="33"
         sodipodi:ry="33"
         d="M 68,35 A 33,33 0 1 1 2,35 33,33 0 1 1 68,35 z"
         transform="translate(0,912.47396)" />
      <path
         id="path3841"
         style="fill:none;stroke:#ffffff;stroke-width:2;stroke-miterlimit:4;stroke-opacity:1"
         d="m 44.640663,926.46672 2.897778,-0.77645 c 1.605369,-0.43016 3.244077,0.51595 3.674247,2.12137 l 4.658743,17.38664 c 0.430157,1.6054 -0.515951,3.2441 -2.12132,3.6742 l -2.897778,0.7765 c -1.605368,0.4301 -3.244077,-0.516 -3.674234,-2.1213 l -4.658743,-17.3867 c -0.43017,-1.60539 0.515939,-3.2441 2.121307,-3.67426 z m -24.319019,25.15126 2.897778,-0.7764 m -5.416618,-4.7603 3.863704,-1.0353 m -4.071768,-11.3323 c -1.605368,0.4301 -2.551477,2.0688 -2.121307,3.6742 0.430157,1.6054 2.068866,2.5515 3.674234,2.1214 l -2.897777,0.7764 c -1.605369,0.4302 -2.551478,2.0689 -2.12132,3.6743 0.430157,1.6053 2.068866,2.5514 3.674234,2.1213 -1.605368,0.4301 -2.551477,2.0688 -2.12132,3.6742 0.430157,1.6054 2.068866,2.5515 3.674235,2.1213 l 1.75074,-0.4691 c -1.605369,0.4302 -2.551478,2.0689 -2.12132,3.6743 0.430157,1.6053 2.068866,2.5514 3.674234,2.1213 l 7.908518,-2.1191 0.965926,-0.2588 2.837407,-0.7603 -2.887169,11.3205 c -0.411396,1.6102 0.558007,3.2134 2.168304,3.6248 l 0.974594,0.2565 c 1.610272,0.4113 3.213432,-0.558 3.624802,-2.1684 l 4.033327,-15.7363 c 1.343228,-1.217 1.98072,-3.1123 1.477601,-4.9899 l -3.623466,-13.523 c -0.716929,-2.6756 -3.448123,-4.25247 -6.123738,-3.53555 l -7.546295,2.02205 -2.112963,0.5661 -6.761481,1.8118 z" />
      <path
         sodipodi:type="inkscape:offset"
         inkscape:radius="-4.7822251"
         inkscape:original="M 35 2 C 16.774603 2 2 16.774603 2 35 C 2 53.225397 16.774603 68 35 68 C 53.225397 68 68 53.225397 68 35 C 68 16.774603 53.225397 2 35 2 z "
         style="fill:url(#linearGradient3953);fill-opacity:1;stroke:none"
         id="path3951"
         d="M 35,6.78125 C 19.359109,6.78125 6.78125,19.359109 6.78125,35 6.78125,50.640891 19.359109,63.21875 35,63.21875 50.640891,63.21875 63.21875,50.640891 63.21875,35 63.21875,19.359109 50.640891,6.78125 35,6.78125 z"
         transform="matrix(0.83680131,0,0,0.57308705,5.7119542,914.47593)" />
    </g>
    <path
       sodipodi:type="arc"
       style="fill:#7e2038;fill-opacity:1;stroke:#7e2038;stroke-width:1;stroke-miterlimit:4;stroke-opacity:1;stroke-dasharray:none"
       id="path3978"
       sodipodi:cx="35"
       sodipodi:cy="35"
       sodipodi:rx="33"
       sodipodi:ry="33"
       d="M 68,35 A 33,33 0 1 1 2,35 33,33 0 1 1 68,35 z"
       transform="translate(0,982.36218)" />
    <path
       id="path3980"
       style="fill:none;stroke:#ffffff;stroke-width:2;stroke-miterlimit:4;stroke-opacity:1"
       d="m 44.640663,996.35494 2.897778,-0.77645 c 1.605369,-0.43016 3.244077,0.51595 3.674247,2.12137 l 4.658743,17.38664 c 0.430157,1.6054 -0.515951,3.2441 -2.12132,3.6742 l -2.897778,0.7765 c -1.605368,0.4301 -3.244077,-0.516 -3.674234,-2.1213 l -4.658743,-17.3867 c -0.43017,-1.60539 0.515939,-3.2441 2.121307,-3.67426 z m -24.319019,25.15126 2.897778,-0.7764 m -5.416618,-4.7603 3.863704,-1.0353 m -4.071768,-11.3323 c -1.605368,0.4301 -2.551477,2.0688 -2.121307,3.6742 0.430157,1.6054 2.068866,2.5515 3.674234,2.1214 l -2.897777,0.7764 c -1.605369,0.4302 -2.551478,2.0689 -2.12132,3.6743 0.430157,1.6053 2.068866,2.5514 3.674234,2.1213 -1.605368,0.4301 -2.551477,2.0688 -2.12132,3.6742 0.430157,1.6054 2.068866,2.5515 3.674235,2.1213 l 1.75074,-0.4691 c -1.605369,0.4302 -2.551478,2.0689 -2.12132,3.6743 0.430157,1.6053 2.068866,2.5514 3.674234,2.1213 l 7.908518,-2.1191 0.965926,-0.2588 2.837407,-0.7603 -2.887169,11.3205 c -0.411396,1.6102 0.558007,3.2134 2.168304,3.6248 l 0.974594,0.2565 c 1.610272,0.4113 3.213432,-0.558 3.624802,-2.1684 l 4.033327,-15.7363 c 1.343228,-1.217 1.98072,-3.1123 1.477601,-4.9899 l -3.623466,-13.523 c -0.716929,-2.6756 -3.448123,-4.25247 -6.123738,-3.53555 l -7.546295,2.02205 -2.112963,0.5661 -6.761481,1.8118 z" />
    <path
       sodipodi:type="inkscape:offset"
       inkscape:radius="-4.7822251"
       inkscape:original="M 35 2 C 16.774603 2 2 16.774603 2 35 C 2 53.225397 16.774603 68 35 68 C 53.225397 68 68 53.225397 68 35 C 68 16.774603 53.225397 2 35 2 z "
       style="fill:url(#linearGradient4008);fill-opacity:1;stroke:none"
       id="path3982"
       d="M 35,6.78125 C 19.359109,6.78125 6.78125,19.359109 6.78125,35 6.78125,50.640891 19.359109,63.21875 35,63.21875 50.640891,63.21875 63.21875,50.640891 63.21875,35 63.21875,19.359109 50.640891,6.78125 35,6.78125 z"
       transform="matrix(0.83680131,0,0,0.57308705,5.7119542,914.47593)" />
  </g>
</svg>
