<?xml version="1.0" encoding="UTF-8" standalone="no"?>
<!-- Created with Inkscape (http://www.inkscape.org/) -->

<svg
   xmlns:dc="http://purl.org/dc/elements/1.1/"
   xmlns:cc="http://creativecommons.org/ns#"
   xmlns:rdf="http://www.w3.org/1999/02/22-rdf-syntax-ns#"
   xmlns:svg="http://www.w3.org/2000/svg"
   xmlns="http://www.w3.org/2000/svg"
   xmlns:sodipodi="http://sodipodi.sourceforge.net/DTD/sodipodi-0.dtd"
   xmlns:inkscape="http://www.inkscape.org/namespaces/inkscape"
   id="svg4083"
   version="1.1"
   inkscape:version="0.47 r22583"
   width="512"
   height="512"
   sodipodi:docname="signup-down.png">
  <metadata
     id="metadata4089">
    <rdf:RDF>
      <cc:Work
         rdf:about="">
        <dc:format>image/svg+xml</dc:format>
        <dc:type
           rdf:resource="http://purl.org/dc/dcmitype/StillImage" />
        <dc:title></dc:title>
      </cc:Work>
    </rdf:RDF>
  </metadata>
  <defs
     id="defs4087">
    <inkscape:perspective
       sodipodi:type="inkscape:persp3d"
       inkscape:vp_x="0 : 0.5 : 1"
       inkscape:vp_y="0 : 1000 : 0"
       inkscape:vp_z="1 : 0.5 : 1"
       inkscape:persp3d-origin="0.5 : 0.33333333 : 1"
       id="perspective4091" />
  </defs>
  <sodipodi:namedview
     pagecolor="#ffffff"
     bordercolor="#666666"
     borderopacity="1"
     objecttolerance="10"
     gridtolerance="10"
     guidetolerance="10"
     inkscape:pageopacity="0"
     inkscape:pageshadow="2"
     inkscape:window-width="1062"
     inkscape:window-height="705"
     id="namedview4085"
     showgrid="false"
     inkscape:zoom="0.80713971"
     inkscape:cx="141.18757"
     inkscape:cy="279.73261"
     inkscape:window-x="178"
     inkscape:window-y="19"
     inkscape:window-maximized="0"
     inkscape:current-layer="svg4083" />
  <path
     style="fill:#000000"
     d="m 366.40318,488.30261 c -16.07185,-4.63595 -24.10095,-12.3972 -26.4088,-25.52779 -1.59131,-9.05386 0.52789,-17.16053 9.01414,-34.48208 8.68623,-17.72973 11.82385,-26.48649 12.58011,-35.10972 l 0.5781,-6.5918 -12.38178,-0.60934 c -25.02227,-1.23141 -43.25799,-8.96104 -50.56785,-21.43436 -2.18658,-3.73113 -2.67289,-5.7703 -2.62368,-11.00144 0.0527,-5.59746 0.67126,-7.64391 4.82117,-15.94934 4.74859,-9.5036 4.75658,-9.53673 3.12468,-12.95887 -1.98787,-4.16858 -2.10708,-10.30006 -0.28505,-14.66079 1.23557,-2.95712 5.04069,-6.77543 10.70229,-10.73939 1.6739,-1.17197 2.29571,-2.80863 2.61754,-6.88956 0.23216,-2.94384 1.06003,-6.58603 1.8397,-8.09376 1.93976,-3.75107 6.68034,-7.56418 11.21403,-9.02004 5.23029,-1.67956 7.2726,-3.74222 7.29185,-7.3645 0.0291,-5.47419 3.88025,-10.7931 10.05035,-13.88076 7.51371,-3.76003 20.1095,-4.7701 28.86148,-2.31441 5.06683,1.42168 6.70267,1.4961 10.29772,0.4685 2.3507,-0.67192 9.224,-1.25467 15.274,-1.295 10.59487,-0.0706 11.22205,0.0472 17.02909,3.19824 8.6769,4.70837 22.01821,14.99602 28.97091,22.33984 l 6,6.33752 13.70345,0.52553 c 7.53689,0.28904 14.1187,0.97553 14.62624,1.52553 0.50753,0.55 1.8597,3.925 3.00481,7.5 7.49983,23.41425 6.74621,50.52634 -2.01926,72.64445 l -2.32057,5.85555 -15.64553,0.5 c -19.28546,0.61632 -16.44847,-1.23099 -34.55414,22.5 -11.87026,15.55827 -14.7226,18.83883 -34.64013,39.84057 l -13.84512,14.59879 -4.53691,20.28032 c -2.49529,11.15418 -4.81499,20.56348 -5.15487,20.90957 -0.33988,0.34608 -3.31797,-0.14958 -6.61797,-1.10146 z"
     id="path4099" />
  <path
     style="fill:#000000"
     d="m 80.120957,235.6699 c 0.46309,-1.2375 2.07098,-8.1 3.5731,-15.25 1.50211,-7.15 3.47459,-14.17652 4.38327,-15.6145 0.90869,-1.43797 9.84388,-11.33797 19.855983,-22 10.01208,-10.66202 23.85095,-26.67614 30.75303,-35.58693 17.27487,-22.30237 18.46865,-23.10204 35.87254,-24.02948 12.89327,-0.68707 14.00093,-1.35572 16.18309,-9.76909 4.52715,-17.454479 4.23738,-38.577149 -0.74766,-54.499999 l -2.34806,-7.5 -12.74359,-0.28014 -12.74359,-0.28014 -11.21479,-11.29423 c -7.12572,-7.17618 -14.67864,-13.5928 -20.7148,-17.598331 l -9.5,-6.3041 -8.99999,0.63285 c -4.95,0.34807 -11.753003,1.54777 -15.117773,2.666 l -6.11777,2.03315 -5.16925,-2.03753 c -7.06149,-2.78338 -15.35882,-2.69995 -21.12992,0.21247 -5.58454,2.81827 -6.93196,5.51409 -6.95055,13.906161 l -0.0147,6.65616 -5.25,0.70479 c -6.52491,0.87594 -10.68041,2.56767 -13.1702,5.36168 -1.83942,2.06418 -2.10293,4.91527 -1.28969,13.95395 0.17447,1.9391 -0.61508,2.64886 -4.67884,4.20602 -5.71163,2.18859 -9.19493,5.16626 -10.05576,8.59608 -0.65208,2.59811 2.30719,10.45098 5.10219,13.53941 1.46145,1.6149 1.25884,2.11031 -2.67333,6.53654 -5.68891,6.40369 -8.96237,13.566619 -8.9746,19.638079 -0.0328,16.29724 16.64501,24.71753 52.15696,26.33296 15.91407,0.72393 15.16516,0.0639 13.68298,12.05969 -1.38723,11.22737 -6.00795,24.07671 -13.52211,37.60236 -7.42263,13.36091 -9.33731,18.72391 -9.30564,26.06505 0.0367,8.51408 5.50863,17.70628 12.84909,21.58508 4.81634,2.54503 7.00162,2.47855 8.02042,-0.24401 z"
     id="path4095" />
</svg>
